<svg width="126" height="71" viewBox="0 0 126 71" fill="none" xmlns="http://www.w3.org/2000/svg">
<path d="M26.96 43.273C26.3169 44.5759 25.3878 45.4479 24.1729 45.8888C22.9579 46.3298 21.731 46.2426 20.4923 45.6275C19.2496 45.0136 18.4368 44.0895 18.0538 42.8551C17.6708 41.6208 17.8029 40.3534 18.45 39.0531C19.0918 37.758 20.0162 36.892 21.2233 36.455C22.4303 36.0181 23.6565 36.1065 24.9019 36.7204C26.1446 37.3343 26.9581 38.2584 27.3424 39.4927C27.7267 40.727 27.5992 41.9871 26.96 43.273ZM23.5073 43.471C23.8079 43.371 24.0848 43.2102 24.3206 42.9986C24.5564 42.7871 24.7462 42.5293 24.8781 42.2413C25.0271 41.9637 25.1165 41.6582 25.1407 41.3442C25.1649 41.0302 25.1234 40.7145 25.0187 40.4175C24.779 39.8211 24.3281 39.3337 23.7519 39.0485C23.1757 38.7632 22.5146 38.7 21.8948 38.8709C21.5948 38.9678 21.3183 39.1261 21.083 39.3358C20.8476 39.5455 20.6586 39.8019 20.528 40.0888C20.3792 40.3684 20.2896 40.6758 20.2647 40.9916C20.2398 41.3074 20.2802 41.6249 20.3834 41.9244C20.6153 42.5267 21.0652 43.02 21.6437 43.3064C22.2223 43.5929 22.8874 43.6516 23.5073 43.471V43.471Z" fill="#4185F3"/>
<path d="M31.8225 35.7032C31.3963 36.2485 30.8388 36.677 30.2021 36.9487C29.6025 37.2002 28.9449 37.2804 28.3024 37.1804C27.6435 37.0647 27.0249 36.7831 26.505 36.3621C25.9851 35.9412 25.5811 35.3948 25.331 34.7744C25.1025 34.1692 25.0476 33.5121 25.1726 32.8774C25.3086 32.199 25.6131 31.5657 26.058 31.0358C26.4348 30.5576 26.9168 30.1727 27.4665 29.911C27.9837 29.6647 28.5545 29.5523 29.1265 29.5843C29.7118 29.6201 30.2793 29.7996 30.7786 30.107L29.3087 31.9229C29.0331 31.8245 28.7329 31.8175 28.453 31.9031C28.1683 31.9876 27.917 32.1585 27.7339 32.3922C27.6069 32.539 27.5128 32.7113 27.4578 32.8974C27.4028 33.0835 27.3882 33.2792 27.415 33.4714C27.477 33.878 27.697 34.2438 28.0271 34.4893C28.3372 34.7637 28.7425 34.9059 29.1562 34.8853C29.3497 34.873 29.5383 34.8192 29.7092 34.7276C29.8801 34.6361 30.0293 34.5089 30.1467 34.3546C30.3424 34.1206 30.4539 33.8278 30.4636 33.5229C30.4735 33.2152 30.3839 32.9124 30.2081 32.6596L31.6938 30.8239C32.3188 31.4691 32.6805 32.3242 32.708 33.2219C32.7297 34.13 32.4143 35.0139 31.8225 35.7032V35.7032Z" fill="#0A4681"/>
<path d="M37.7234 24.9547C37.8565 25.1194 37.9777 25.2935 38.0859 25.4755L34.0884 28.7647C34.3489 29.0032 34.6845 29.1433 35.0373 29.1607C35.3765 29.1577 35.7031 29.0318 35.9564 28.8062C36.0955 28.6927 36.217 28.5592 36.317 28.4102C36.4096 28.2735 36.4767 28.1212 36.5151 27.9607C36.5448 27.8063 36.5448 27.6477 36.5151 27.4933L38.3593 25.9765C38.6778 26.7086 38.7358 27.5277 38.5237 28.2973C38.3012 29.0888 37.8338 29.7896 37.1886 30.2993C36.8113 30.6291 36.3709 30.8786 35.8942 31.0328C35.4174 31.187 34.9142 31.2427 34.4153 31.1964C33.9244 31.1548 33.4474 31.0124 33.0141 30.7779C32.5809 30.5435 32.2007 30.2221 31.8975 29.834C31.465 29.325 31.1763 28.7097 31.0616 28.0518C30.9512 27.4165 31.0198 26.7631 31.2597 26.1646C31.5121 25.5388 31.9215 24.9885 32.4482 24.5666C32.9782 24.1114 33.6181 23.8028 34.3043 23.6715C34.9331 23.5495 35.5834 23.6051 36.1823 23.8319C36.7867 24.0626 37.3186 24.4502 37.7234 24.9547ZM33.6586 26.0102C33.4104 26.2021 33.2356 26.4733 33.1633 26.7785C33.1008 27.0946 33.1396 27.4224 33.2743 27.7151L35.4533 25.9191C35.192 25.7188 34.868 25.618 34.5392 25.6347C34.2103 25.6513 33.8982 25.7845 33.6586 26.0102V26.0102Z" fill="#F9A420"/>
<path d="M42.4145 18.5914L43.9993 17.7993L47.1192 24.0311L45.477 24.8588L45.0808 24.5123C44.7679 25.2113 44.2178 25.7774 43.5278 26.1103C42.9411 26.4168 42.2834 26.5617 41.6221 26.5301C40.9904 26.4948 40.3808 26.2851 39.8611 25.9242C39.3108 25.5402 38.8692 25.0203 38.5794 24.4152C38.3455 23.9855 38.2015 23.5126 38.1562 23.0255C38.1109 22.5383 38.1653 22.047 38.316 21.5815C38.4704 21.12 38.7177 20.6949 39.0427 20.3325C39.3678 19.9702 39.7636 19.6782 40.2058 19.4746C40.8955 19.1181 41.6894 19.0177 42.4462 19.1914L42.4145 18.5914ZM41.6479 24.1538C42.0445 24.2791 42.4742 24.246 42.8469 24.0614C43.2195 23.8768 43.5062 23.5551 43.6467 23.1637C43.7618 22.7578 43.721 22.3235 43.5322 21.9462C43.3434 21.5688 43.0204 21.2756 42.6265 21.1241C42.4327 21.0565 42.227 21.0298 42.0224 21.0459C41.8178 21.0619 41.6188 21.1202 41.4379 21.2172C41.2502 21.3053 41.0829 21.4314 40.9465 21.5875C40.8101 21.7436 40.7076 21.9263 40.6455 22.1241C40.5325 22.5282 40.5739 22.9598 40.7618 23.335C40.9496 23.7102 41.2705 24.0021 41.6618 24.1538H41.6479Z" fill="#EF5732"/>
<path d="M50.6337 15.7946C50.9837 15.6989 51.3503 15.6805 51.7081 15.7407C52.0659 15.8008 52.4064 15.9382 52.7057 16.1431C53.2961 16.5576 53.6889 17.1966 53.8844 18.06L54.8174 22.2006L52.474 22.7293L51.6123 18.9154C51.436 18.1233 51.0517 17.7986 50.4653 17.9253C50.2417 17.9668 50.0351 18.0728 49.871 18.2303C49.7202 18.383 49.6205 18.5788 49.5858 18.7907C49.5452 19.0499 49.5581 19.3147 49.6234 19.5689L50.4396 23.1947L48.0961 23.7214L46.5669 16.9233L48.2031 16.555L48.6884 17.1867C48.8895 16.8253 49.1683 16.513 49.5047 16.2722C49.841 16.0315 50.2267 15.8684 50.6337 15.7946Z" fill="#EC2129"/>
<path d="M64.8032 15.7598L61.5723 15.5063L61.4594 16.9479L64.3555 17.1757L64.1852 19.3539L61.2891 19.1143L61.0513 22.2827L58.5554 22.0847L59.2606 13.0786L64.9874 13.5281L64.8032 15.7598Z" fill="#4185F3"/>
<path d="M70.4307 16.8681L71.0448 17.0186L70.5159 19.1612L69.6145 18.9394C69.2038 18.8391 68.8829 18.8616 68.6518 19.0068C68.4207 19.152 68.253 19.4385 68.1487 19.8662L67.2969 23.3118L64.9653 22.7355L66.6372 15.9711L68.1903 16.3552L68.3685 17.1968C68.9509 16.781 69.6363 16.6721 70.4307 16.8681Z" fill="#EA4335"/>
<path d="M69.9672 24.0998L72.4334 17.5828L74.6778 18.4324L72.2115 24.9493L69.9672 24.0998ZM72.7563 16.7729L73.4734 14.8779L75.6821 15.7135L74.965 17.6086L72.7563 16.7729Z" fill="#FABB07"/>
<path d="M81.3355 25.7185C81.2311 25.9024 81.1125 26.0778 80.9809 26.2433L76.4664 23.7125C76.3414 24.0412 76.3344 24.4031 76.4466 24.7363C76.5729 25.0517 76.8094 25.3107 77.1121 25.465C77.2673 25.5564 77.4357 25.6232 77.6113 25.6631C77.7716 25.6972 77.9367 25.7019 78.0986 25.6769C78.2539 25.6523 78.4027 25.5971 78.5364 25.5146L80.6204 26.6829C80.0529 27.2447 79.3094 27.5943 78.5146 27.673C77.6964 27.7519 76.8741 27.5703 76.1653 27.1542C75.7212 26.9235 75.3287 26.6049 75.0117 26.2179C74.6946 25.8308 74.4597 25.3833 74.321 24.9027C74.1812 24.4303 74.1409 23.934 74.2026 23.4453C74.2644 22.9565 74.4267 22.4859 74.6796 22.063C74.9977 21.4748 75.4676 20.9825 76.0405 20.6373C76.5931 20.3044 77.2277 20.1323 77.8728 20.1402C78.549 20.1485 79.2116 20.3313 79.7963 20.6709C80.4043 20.9973 80.918 21.4747 81.2879 22.0571C81.6291 22.5989 81.8129 23.2248 81.8188 23.865C81.8263 24.5149 81.6594 25.155 81.3355 25.7185ZM78.8772 22.3145C78.6075 22.1533 78.2911 22.0883 77.9798 22.1303C77.6627 22.1858 77.3714 22.3405 77.1478 22.5719L79.6121 23.9581C79.7079 23.6416 79.6863 23.3012 79.5513 22.9993C79.4163 22.6974 79.177 22.4542 78.8772 22.3145V22.3145Z" fill="#4185F3"/>
<path d="M88.0074 26.5232C88.2934 26.7464 88.5272 27.0293 88.6925 27.3522C88.8578 27.6751 88.9505 28.0301 88.9642 28.3925C88.988 29.1147 88.712 29.8124 88.1362 30.4856L85.3748 33.7134L83.5504 32.153L86.0998 29.1708C86.6281 28.5569 86.6624 28.0539 86.2028 27.6618C86.0364 27.511 85.8301 27.4114 85.6085 27.3747C85.3964 27.346 85.1806 27.3834 84.9905 27.4816C84.7613 27.6062 84.5593 27.7752 84.3962 27.9787L81.9716 30.8005L80.1451 29.2421L84.6755 23.945L85.9512 25.0341L85.7353 25.8024C86.1438 25.7475 86.5593 25.7837 86.9522 25.9083C87.345 26.033 87.7054 26.2429 88.0074 26.5232V26.5232Z" fill="#0A4681"/>
<path d="M96.6255 32.4962L98.0914 34.3656L90.6293 40.2231L89.5299 38.823L89.7993 38.3319C89.048 38.1747 88.3781 37.7531 87.9114 37.1438C87.5979 36.7708 87.3647 36.3372 87.2264 35.8701C87.088 35.403 87.0474 34.9124 87.1072 34.4289C87.2721 33.455 87.7941 32.5775 88.5713 31.9675C89.3485 31.3575 90.3251 31.0589 91.3107 31.1299C91.7951 31.1859 92.2627 31.3415 92.684 31.5869C93.1054 31.8322 93.4714 32.162 93.7591 32.5556C94.1436 33.0313 94.3811 33.6086 94.4425 34.217L96.6255 32.4962ZM89.4467 34.924C89.3986 35.3403 89.5176 35.7587 89.7775 36.0875C90.0374 36.4163 90.417 36.6288 90.8333 36.6785C91.0428 36.7004 91.2547 36.6804 91.4564 36.6195C91.6581 36.5586 91.8456 36.4582 92.008 36.324C92.1794 36.191 92.3228 36.0255 92.4299 35.8369C92.5314 35.6596 92.5986 35.4647 92.628 35.2626C92.6532 35.0636 92.6384 34.8617 92.5844 34.6685C92.5293 34.4655 92.4329 34.2761 92.3012 34.1121C92.1772 33.9454 92.0198 33.8065 91.839 33.7042C91.6582 33.6019 91.458 33.5385 91.2513 33.518C90.8294 33.4862 90.411 33.6135 90.0784 33.8748C89.7458 34.1362 89.5232 34.5126 89.4546 34.9299L89.4467 34.924Z" fill="#EA4335"/>
<path d="M92.219 43.6978C91.7779 42.8595 91.6307 42.0932 91.7772 41.3988C91.8494 41.0585 91.998 40.739 92.2118 40.4646C92.4256 40.1901 92.699 39.9679 93.0114 39.8146L94.089 41.8562C93.9935 41.8977 93.9084 41.96 93.8399 42.0384C93.7714 42.1168 93.7211 42.2095 93.6928 42.3097C93.6498 42.5165 93.6859 42.732 93.7938 42.9136C93.8457 43.0156 93.9163 43.107 94.0018 43.1829C94.0801 43.2548 94.1781 43.3016 94.2831 43.3176C94.389 43.3352 94.4977 43.3171 94.5921 43.2661C94.6471 43.2348 94.6938 43.1908 94.7283 43.1377C94.7627 43.0846 94.784 43.0241 94.7902 42.9612C94.812 42.8161 94.8059 42.6683 94.7724 42.5255C94.7368 42.379 94.6753 42.175 94.5882 41.9156C94.501 41.6562 94.4297 41.4324 94.3901 41.2502C94.336 41.0265 94.3009 40.7986 94.2851 40.569C94.2608 40.3295 94.2789 40.0875 94.3386 39.8542C94.4092 39.6235 94.5243 39.409 94.6773 39.2225C94.8647 38.9917 95.099 38.8033 95.3647 38.67C95.6462 38.5107 95.9622 38.4221 96.2854 38.4117C96.6087 38.4014 96.9297 38.4696 97.2208 38.6106C97.8455 38.8931 98.3658 39.4304 98.7818 40.2225C99.1978 41.0146 99.3398 41.7446 99.2077 42.4126C99.1506 42.7379 99.0183 43.0454 98.8212 43.3105C98.6241 43.5756 98.3678 43.7909 98.0726 43.9394L97.0247 41.9592C97.1418 41.8997 97.2384 41.8066 97.3021 41.6918C97.3595 41.5916 97.3851 41.4762 97.3753 41.3611C97.3636 41.231 97.3244 41.1048 97.2604 40.9908C97.1907 40.8374 97.0685 40.7138 96.9158 40.6423C96.8505 40.6127 96.779 40.599 96.7074 40.6024C96.6357 40.6059 96.5659 40.6263 96.5037 40.6621C96.4474 40.6899 96.3986 40.7306 96.3611 40.7809C96.3255 40.835 96.3062 40.8983 96.3056 40.9631C96.3056 41.0384 96.3056 41.1057 96.3056 41.1611C96.3128 41.2491 96.3294 41.3361 96.3552 41.4205C96.3869 41.5354 96.4126 41.6186 96.4344 41.6918C96.4562 41.7651 96.4879 41.8621 96.5335 42.0047C96.5869 42.1809 96.6246 42.3037 96.6483 42.375C96.6721 42.4463 96.7058 42.573 96.7513 42.7493C96.7969 42.9255 96.8286 43.0641 96.8425 43.1552C96.8563 43.2463 96.8662 43.373 96.8761 43.5374C96.8879 43.6699 96.8799 43.8033 96.8524 43.9334C96.8286 44.0344 96.793 44.1572 96.7494 44.3018C96.7079 44.4368 96.6406 44.5626 96.5513 44.6721C96.3401 44.9284 96.0802 45.1404 95.7866 45.2958C95.4915 45.4629 95.1606 45.5565 94.8217 45.5689C94.4828 45.5813 94.1459 45.5121 93.8394 45.3671C93.1936 45.0754 92.6535 44.5189 92.219 43.6978Z" fill="#FABB07"/>
<path d="M117.677 70.1485C114.272 70.1485 109.143 67.6297 102.778 64.2811C96.0144 60.7163 89.6648 56.4163 83.8446 51.4591C79.1854 55.7206 71.854 60.7503 61.8563 62.7009C41.0427 66.7663 24.8644 54.0136 21.8277 51.4155C21.4949 51.1155 21.2928 50.6971 21.2646 50.25C21.2365 49.8029 21.3844 49.3625 21.6769 49.0231C21.9694 48.6836 22.3831 48.4721 22.8296 48.4336C23.2761 48.3952 23.7199 48.533 24.0661 48.8175C26.885 51.2353 41.9281 63.1048 61.2026 59.3404C71.2261 57.384 78.3693 52.0552 82.5966 47.9284C82.9058 47.6268 83.3175 47.4529 83.7493 47.4415C84.1812 47.4302 84.6015 47.5821 84.9261 47.867C90.8614 53.0765 97.39 57.5689 104.377 61.2513C107.069 62.6672 110.419 64.4316 113.265 65.5603C117.425 67.2059 118.283 66.6257 118.291 66.6197C118.669 66.0415 118.115 61.9939 110.688 51.5126C110.459 51.1863 110.35 50.7904 110.381 50.3928C110.412 49.9953 110.581 49.621 110.858 49.3343C118.723 41.257 121.316 37.651 122.166 36.0965C119.961 36.6906 113.945 39.3045 97.6833 49.5719C97.493 49.6921 97.2809 49.7736 97.0591 49.8118C96.8373 49.85 96.6102 49.8441 96.3906 49.7946C96.1711 49.745 95.9635 49.6527 95.7796 49.523C95.5958 49.3932 95.4393 49.2285 95.3191 49.0383C95.1989 48.848 95.1174 48.636 95.0792 48.4143C95.0409 48.1926 95.0468 47.9655 95.0964 47.746C95.1459 47.5266 95.2383 47.319 95.3681 47.1352C95.4979 46.9514 95.6626 46.795 95.8529 46.6749C120.549 31.0806 123.875 31.4826 125.47 33.4984C126.88 35.2806 125.246 37.9579 123.271 40.5797C121.379 43.0867 118.366 46.4907 114.303 50.7066C116.074 53.2345 117.702 55.8591 119.18 58.5681C122.031 63.9306 122.522 67.1445 120.765 68.992C120.002 69.7901 118.962 70.1485 117.677 70.1485Z" fill="#4185F3"/>
<path d="M11.7295 35.9974C12.2846 35.9974 12.8273 35.8328 13.289 35.5245C13.7506 35.2162 14.1103 34.7779 14.3228 34.2652C14.5352 33.7525 14.5908 33.1883 14.4825 32.644C14.3742 32.0997 14.1069 31.5997 13.7143 31.2073C13.3218 30.8148 12.8216 30.5476 12.2771 30.4393C11.7326 30.3311 11.1682 30.3866 10.6553 30.599C10.1424 30.8114 9.704 31.171 9.39557 31.6325C9.08713 32.0939 8.92251 32.6364 8.92251 33.1914C8.93375 33.9321 9.2331 34.6393 9.75709 35.1631C10.2811 35.6869 10.9885 35.9861 11.7295 35.9974V35.9974Z" fill="#96D4DF"/>
<path d="M1.98415 21.4256C4.62472 21.4256 4.63067 17.3246 1.98415 17.3246C-0.662372 17.3246 -0.660392 21.4256 1.98415 21.4256Z" fill="#96D4DF"/>
<path d="M13.7669 12.0627C14.346 12.0627 14.9122 11.891 15.3937 11.5693C15.8752 11.2477 16.2505 10.7904 16.472 10.2555C16.6936 9.72061 16.7514 9.13203 16.6383 8.56424C16.5252 7.99645 16.2461 7.47495 15.8365 7.06571C15.4268 6.65647 14.9049 6.37788 14.3368 6.26517C13.7688 6.15247 13.18 6.21071 12.6451 6.43253C12.1101 6.65436 11.653 7.0298 11.3315 7.51136C11.0101 7.99293 10.8387 8.55899 10.8391 9.13793C10.8508 9.91031 11.1631 10.6477 11.7097 11.1938C12.2563 11.7398 12.9942 12.0515 13.7669 12.0627Z" fill="#96D4DF"/>
<path d="M2.96046 1.00496L2.82972 1.08219L2.72473 1.1416L2.66926 1.17526C2.52848 1.25922 2.41019 1.3761 2.32458 1.51586C2.24108 1.65239 2.19689 1.80931 2.19689 1.96933C2.19689 2.12936 2.24108 2.28628 2.32458 2.4228C2.41019 2.56256 2.52848 2.67945 2.66926 2.7634L2.72473 2.79509L2.82972 2.85647L2.96046 2.93172C3.13019 3.03123 3.32319 3.08417 3.51996 3.08518C3.71672 3.08618 3.91026 3.03523 4.08099 2.93746C4.25173 2.8397 4.39361 2.69859 4.49229 2.52842C4.59096 2.35824 4.64292 2.16504 4.64292 1.96834C4.64292 1.77165 4.59096 1.57844 4.49229 1.40827C4.39361 1.23809 4.25173 1.09699 4.08099 0.99922C3.91026 0.901455 3.71672 0.8505 3.51996 0.851509C3.32319 0.852517 3.13019 0.905452 2.96046 1.00496Z" fill="#96D4DF"/>
</svg>
