<svg width="16" height="16" viewBox="0 0 16 16" fill="none" xmlns="http://www.w3.org/2000/svg">
<path fill-rule="evenodd" clip-rule="evenodd" d="M7.98017 1.16667C6.91259 1.16667 6.02549 1.20472 5.30587 1.352C4.57719 1.50112 3.97665 1.77072 3.52547 2.26499C3.0796 2.75344 2.83152 3.40495 2.68933 4.21277C2.54739 5.01915 2.50283 6.03157 2.50283 7.286C2.50283 7.77013 2.50201 8.22469 2.50124 8.65107C2.4976 10.6675 2.49509 12.0538 2.58601 12.9579C2.64025 13.4974 2.7338 13.9553 2.93948 14.2842C3.05009 14.461 3.19699 14.6076 3.38773 14.7051C3.57506 14.801 3.77285 14.8333 3.96217 14.8333C4.39468 14.8333 4.81407 14.5954 5.1526 14.3602C5.48307 14.1306 5.83094 13.8333 6.15991 13.5521L6.23778 13.4856C6.60105 13.1756 6.94226 12.8893 7.26245 12.6791C7.59459 12.461 7.82806 12.3773 7.98017 12.3773C8.13227 12.3773 8.36575 12.461 8.69788 12.6791C9.01808 12.8893 9.35928 13.1756 9.72256 13.4856L9.80041 13.5521C10.1294 13.8333 10.4773 14.1306 10.8077 14.3602C11.1463 14.5954 11.5656 14.8333 11.9982 14.8333C12.1875 14.8333 12.3853 14.801 12.5726 14.7051C12.7633 14.6076 12.9102 14.461 13.0209 14.2842C13.2265 13.9553 13.3201 13.4974 13.3743 12.9579C13.4652 12.0538 13.4627 10.6675 13.4591 8.65107C13.4583 8.22469 13.4575 7.77013 13.4575 7.286C13.4575 6.03157 13.4129 5.01915 13.271 4.21277C13.1288 3.40495 12.8807 2.75344 12.4349 2.26499C11.9837 1.77072 11.3831 1.50112 10.6545 1.352C9.93484 1.20472 9.04775 1.16667 7.98017 1.16667ZM3.50283 7.286C3.50283 6.04143 3.54819 5.10194 3.67419 4.38613C3.79993 3.67176 3.99781 3.23082 4.26403 2.93918C4.52493 2.65336 4.9026 2.45525 5.50636 2.33169C6.11917 2.20628 6.91875 2.16667 7.98017 2.16667C9.04159 2.16667 9.84116 2.20628 10.454 2.33169C11.0577 2.45525 11.4354 2.65336 11.6963 2.93918C11.9625 3.23082 12.1604 3.67176 12.2861 4.38613C12.4121 5.10194 12.4575 6.04143 12.4575 7.286C12.4575 7.78192 12.4583 8.24383 12.459 8.67396C12.4624 10.6911 12.4647 12.0093 12.3793 12.8579C12.3268 13.3809 12.247 13.6357 12.173 13.7539C12.1438 13.8006 12.1243 13.8112 12.1171 13.8149C12.1065 13.8203 12.0748 13.8333 11.9982 13.8333C11.899 13.8333 11.7026 13.7643 11.3783 13.539C11.0909 13.3393 10.78 13.0737 10.4386 12.7821L10.3718 12.725C10.0157 12.4211 9.62792 12.0934 9.2467 11.8431C8.87742 11.6007 8.43706 11.3773 7.98017 11.3773C7.52327 11.3773 7.08291 11.6007 6.71363 11.8431C6.33241 12.0934 5.94461 12.4211 5.58856 12.725L5.52173 12.7821L5.52169 12.7821C5.18033 13.0737 4.86941 13.3393 4.58199 13.539C4.25776 13.7643 4.06132 13.8333 3.96217 13.8333C3.88549 13.8333 3.85379 13.8203 3.84319 13.8149C3.836 13.8112 3.81652 13.8006 3.78732 13.7539C3.71337 13.6357 3.63358 13.3809 3.58099 12.8579C3.49566 12.0093 3.4979 10.6911 3.50132 8.67397L3.50132 8.67391C3.50205 8.2438 3.50283 7.7819 3.50283 7.286ZM5.69499 5.64513C5.41885 5.64513 5.19499 5.86899 5.19499 6.14513C5.19499 6.42128 5.41885 6.64513 5.69499 6.64513H10.265C10.5411 6.64513 10.765 6.42128 10.765 6.14513C10.765 5.86899 10.5411 5.64513 10.265 5.64513H5.69499Z" fill="#71B1A1"/>
</svg>
